<svg id="visual" viewBox="0 0 1500 600" width="1500" height="600" xmlns="http://www.w3.org/2000/svg" xmlns:xlink="http://www.w3.org/1999/xlink" version="1.1"><rect x="0" y="0" width="1500" height="600" fill="#f3e8ca"></rect><defs><linearGradient id="grad1_0" x1="60%" y1="0%" x2="100%" y2="100%"><stop offset="0%" stop-color="#f3e8ca" stop-opacity="1"></stop><stop offset="100%" stop-color="#f3e8ca" stop-opacity="1"></stop></linearGradient></defs><defs><linearGradient id="grad2_0" x1="0%" y1="0%" x2="40%" y2="100%"><stop offset="0%" stop-color="#f3e8ca" stop-opacity="1"></stop><stop offset="100%" stop-color="#f3e8ca" stop-opacity="1"></stop></linearGradient></defs><g transform="translate(1500, 0)"><path d="M0 270C-19 247.8 -38 225.7 -58.8 219.3C-79.5 212.8 -101.9 222.1 -128.5 222.6C-155.1 223 -185.8 214.7 -190.9 190.9C-196.1 167.2 -175.6 128.1 -185.3 107C-195 85.9 -234.9 82.9 -254 68.1C-273.2 53.2 -271.6 26.6 -270 0L0 0Z" fill="#001122"></path></g><g transform="translate(0, 600)"><path d="M0 -270C19.3 -256.4 38.6 -242.8 64.7 -241.5C90.8 -240.1 123.8 -251.1 134.5 -233C145.2 -214.9 133.7 -167.7 149.9 -149.9C166.1 -132.1 210 -143.6 233 -134.5C256 -125.4 258.1 -95.7 260.8 -69.9C263.5 -44 266.7 -22 270 0L0 0Z" fill="#001122"></path></g></svg>